<svg width="1000pt" height="1000pt" viewBox="0 0 1000 1000" version="1.1" xmlns="http://www.w3.org/2000/svg"><g id="#0b0b0bff"><path fill="#3f4654" opacity="1.00" d=" M 494.55 103.51 C 497.48 102.16 500.74 98.53 504.03 100.98 C 566.64 137.05 629.30 173.07 691.94 209.11 C 743.44 238.83 795.11 268.28 846.50 298.18 C 846.21 317.78 846.44 337.40 846.36 357.00 C 846.26 361.60 846.72 366.24 846.09 370.82 C 845.07 371.97 843.66 372.65 842.37 373.43 C 825.12 383.08 808.28 393.48 790.96 402.98 C 762.39 387.08 734.26 370.33 705.83 354.15 C 637.57 314.74 569.26 275.41 500.99 236.02 C 500.07 235.40 498.94 235.39 498.05 236.06 C 422.17 279.85 346.17 323.48 270.32 367.33 C 269.70 371.19 269.99 375.11 269.98 379.00 C 269.98 460.67 269.98 542.34 269.98 624.00 C 270.00 627.89 269.70 631.81 270.32 635.68 C 345.80 679.57 421.43 723.24 496.94 767.09 C 498.50 768.33 500.48 768.28 502.07 767.10 C 554.87 736.52 607.73 706.05 660.57 675.53 C 665.20 672.66 670.27 670.47 674.51 667.00 C 664.63 660.54 654.09 655.13 643.94 649.11 C 596.09 621.61 548.17 594.19 500.37 566.61 C 499.69 562.43 500.06 558.20 500.02 554.00 C 500.01 539.66 500.03 525.33 500.01 511.00 C 500.05 507.15 499.70 503.26 500.42 499.46 C 515.91 490.63 531.41 481.80 546.84 472.86 C 550.21 470.96 553.45 468.80 557.00 467.24 C 585.26 483.10 613.19 499.59 641.32 515.69 C 705.56 552.75 769.82 589.80 834.06 626.88 C 838.07 629.31 842.37 631.29 846.11 634.15 C 846.74 649.41 846.18 664.72 846.37 680.00 C 846.16 686.93 846.79 693.91 846.09 700.82 C 843.76 703.06 840.64 704.21 837.93 705.89 C 727.25 769.91 616.48 833.79 505.82 897.84 C 503.11 899.16 500.01 902.37 496.98 900.02 C 382.47 833.83 267.85 767.83 153.37 701.60 C 152.63 696.76 153.14 691.86 153.03 687.00 C 152.90 558.66 152.52 430.32 152.65 301.98 C 152.62 300.56 152.95 299.01 154.44 298.49 C 267.85 233.56 381.20 168.53 494.55 103.51 Z" /></g></svg>
